<svg xmlns="http://www.w3.org/2000/svg" width="1024" height="1024" viewBox="0 0 1024 1024">
  <defs>
    <linearGradient id="bg" x1="0" y1="0" x2="1" y2="1">
      <stop offset="0" stop-color="#123b78"/>
      <stop offset="0.55" stop-color="#071a3c"/>
      <stop offset="1" stop-color="#040b1d"/>
    </linearGradient>
    <radialGradient id="halo" cx="50%" cy="45%" r="58%">
      <stop offset="0" stop-color="#64e8ee" stop-opacity=".24"/>
      <stop offset=".58" stop-color="#8a55e8" stop-opacity=".12"/>
      <stop offset="1" stop-color="#050d22" stop-opacity="0"/>
    </radialGradient>
    <linearGradient id="wing" x1="0" y1="0" x2="1" y2="1">
      <stop offset="0" stop-color="#ffe08a"/>
      <stop offset=".48" stop-color="#f27b55"/>
      <stop offset="1" stop-color="#d93468"/>
    </linearGradient>
    <linearGradient id="wing2" x1="0" y1="1" x2="1" y2="0">
      <stop offset="0" stop-color="#702bbf"/>
      <stop offset=".55" stop-color="#d7449b"/>
      <stop offset="1" stop-color="#ffab62"/>
    </linearGradient>
    <filter id="glow" x="-40%" y="-40%" width="180%" height="180%">
      <feGaussianBlur stdDeviation="14" result="blur"/>
      <feMerge><feMergeNode in="blur"/><feMergeNode in="SourceGraphic"/></feMerge>
    </filter>
    <filter id="soft" x="-30%" y="-30%" width="160%" height="160%">
      <feDropShadow dx="0" dy="14" stdDeviation="18" flood-color="#000" flood-opacity=".55"/>
    </filter>
  </defs>

  <rect x="32" y="32" width="960" height="960" rx="235" fill="url(#bg)"/>
  <rect x="38" y="38" width="948" height="948" rx="229" fill="none" stroke="#6ee4ed" stroke-opacity=".44" stroke-width="8"/>
  <circle cx="512" cy="478" r="355" fill="url(#halo)"/>

  <g opacity=".5" fill="none" stroke="#6fdfe9" stroke-width="7">
    <circle cx="512" cy="478" r="272"/>
    <path d="M240 478h544M512 206c-92 78-139 169-139 272s47 194 139 272M512 206c92 78 139 169 139 272s-47 194-139 272"/>
  </g>
  <path d="M270 702c150 80 334 104 506 42" fill="none" stroke="#a45bff" stroke-width="10" stroke-linecap="round" opacity=".7" filter="url(#glow)"/>

  <g filter="url(#soft)">
    <path d="M492 430C414 337 274 319 186 389c72 28 121 88 163 159 42 72 94 93 143 62z" fill="url(#wing)" stroke="#ffd99a" stroke-width="8"/>
    <path d="M532 430c78-93 218-111 306-41-72 28-121 88-163 159-42 72-94 93-143 62z" fill="url(#wing2)" stroke="#ffb18f" stroke-width="8"/>
    <path d="M490 478c-65-35-134-42-204-14 47 22 83 60 116 103 34 44 69 53 106 32z" fill="#e84758" stroke="#ffad75" stroke-width="6"/>
    <path d="M534 478c65-35 134-42 204-14-47 22-83 60-116 103-34 44-69 53-106 32z" fill="#8b48d8" stroke="#ff9e9b" stroke-width="6"/>

    <g fill="#311e54" opacity=".8">
      <circle cx="292" cy="406" r="13"/><circle cx="340" cy="390" r="11"/><circle cx="382" cy="421" r="12"/><circle cx="252" cy="446" r="10"/>
      <circle cx="732" cy="406" r="13"/><circle cx="684" cy="390" r="11"/><circle cx="642" cy="421" r="12"/><circle cx="772" cy="446" r="10"/>
    </g>
    <ellipse cx="512" cy="526" rx="48" ry="128" fill="#18253b" stroke="#92d7dc" stroke-width="7"/>
    <path d="M475 478h74M470 520h84M473 563h78M482 605h60" stroke="#d4e8df" stroke-width="8" stroke-linecap="round" opacity=".8"/>
    <ellipse cx="512" cy="392" rx="54" ry="45" fill="#493943" stroke="#ffb37c" stroke-width="7"/>
    <circle cx="492" cy="388" r="8" fill="#6ee4ed"/><circle cx="532" cy="388" r="8" fill="#6ee4ed"/>
    <path d="M480 365 432 317M544 365l48-48M485 641l-42 57M539 641l42 57" stroke="#ffc18a" stroke-width="8" stroke-linecap="round"/>
  </g>

  <circle cx="512" cy="478" r="388" fill="none" stroke="#72e6ed" stroke-width="5" opacity=".32" stroke-dasharray="10 24"/>
</svg>
